<mxfile host="app.diagrams.net" agent="Mozilla/5.0 (Windows NT 10.0; Win64; x64) AppleWebKit/537.36 (KHTML, like Gecko) Chrome/132.0.0.0 Safari/537.36 OPR/117.0.0.0" version="26.0.4">
  <diagram name="Page-1" id="5_PxfF87xwtZbWOUVoVM">
    <mxGraphModel dx="695" dy="433" grid="1" gridSize="10" guides="1" tooltips="1" connect="1" arrows="1" fold="1" page="1" pageScale="1" pageWidth="850" pageHeight="1100" math="0" shadow="0">
      <root>
        <mxCell id="0" />
        <mxCell id="1" parent="0" />
        <mxCell id="FiibV92SIHVnTIMMilG7-3" value="Admin" style="shape=umlActor;verticalLabelPosition=bottom;verticalAlign=top;html=1;outlineConnect=0;" vertex="1" parent="1">
          <mxGeometry x="170" y="220" width="20" height="30" as="geometry" />
        </mxCell>
        <mxCell id="FiibV92SIHVnTIMMilG7-9" value="" style="swimlane;startSize=0;" vertex="1" parent="1">
          <mxGeometry x="230" y="160" width="440" height="370" as="geometry" />
        </mxCell>
        <mxCell id="FiibV92SIHVnTIMMilG7-11" value="&lt;font style=&quot;font-size: 9px;&quot;&gt;Membaca&lt;/font&gt;&lt;div&gt;&lt;font style=&quot;font-size: 9px;&quot;&gt;Artikel&lt;/font&gt;&lt;/div&gt;" style="ellipse;whiteSpace=wrap;html=1;" vertex="1" parent="FiibV92SIHVnTIMMilG7-9">
          <mxGeometry x="180" y="250" width="60" height="40" as="geometry" />
        </mxCell>
        <mxCell id="FiibV92SIHVnTIMMilG7-15" value="&lt;font size=&quot;1&quot;&gt;Mengelola&lt;/font&gt;&lt;div&gt;&lt;font size=&quot;1&quot;&gt;Artikel&lt;/font&gt;&lt;/div&gt;" style="ellipse;whiteSpace=wrap;html=1;" vertex="1" parent="FiibV92SIHVnTIMMilG7-9">
          <mxGeometry x="180" y="70" width="60" height="40" as="geometry" />
        </mxCell>
        <mxCell id="FiibV92SIHVnTIMMilG7-17" value="&lt;font size=&quot;1&quot;&gt;Mengelola&lt;/font&gt;&lt;div&gt;&lt;font size=&quot;1&quot;&gt;Kategori&lt;/font&gt;&lt;/div&gt;" style="ellipse;whiteSpace=wrap;html=1;" vertex="1" parent="FiibV92SIHVnTIMMilG7-9">
          <mxGeometry x="180" y="130" width="60" height="40" as="geometry" />
        </mxCell>
        <mxCell id="FiibV92SIHVnTIMMilG7-18" value="&lt;font size=&quot;1&quot;&gt;Mengelola&lt;/font&gt;&lt;div&gt;&lt;font size=&quot;1&quot;&gt;Role &amp;amp; Permission&lt;/font&gt;&lt;/div&gt;" style="ellipse;whiteSpace=wrap;html=1;" vertex="1" parent="FiibV92SIHVnTIMMilG7-9">
          <mxGeometry x="180" y="190" width="60" height="40" as="geometry" />
        </mxCell>
        <mxCell id="FiibV92SIHVnTIMMilG7-27" value="&lt;font size=&quot;1&quot;&gt;Login&lt;/font&gt;" style="ellipse;whiteSpace=wrap;html=1;" vertex="1" parent="FiibV92SIHVnTIMMilG7-9">
          <mxGeometry x="180" y="10" width="60" height="40" as="geometry" />
        </mxCell>
        <mxCell id="FiibV92SIHVnTIMMilG7-39" value="&lt;font style=&quot;font-size: 9px;&quot;&gt;Like &amp;amp; Komen Artikel&lt;/font&gt;" style="ellipse;whiteSpace=wrap;html=1;" vertex="1" parent="FiibV92SIHVnTIMMilG7-9">
          <mxGeometry x="180" y="300" width="60" height="40" as="geometry" />
        </mxCell>
        <mxCell id="FiibV92SIHVnTIMMilG7-13" value="" style="endArrow=classic;html=1;rounded=0;entryX=0;entryY=0.5;entryDx=0;entryDy=0;exitX=1;exitY=0.3333333333333333;exitDx=0;exitDy=0;exitPerimeter=0;" edge="1" parent="1" source="FiibV92SIHVnTIMMilG7-3" target="FiibV92SIHVnTIMMilG7-11">
          <mxGeometry width="50" height="50" relative="1" as="geometry">
            <mxPoint x="200" y="310" as="sourcePoint" />
            <mxPoint x="250" y="260" as="targetPoint" />
          </mxGeometry>
        </mxCell>
        <mxCell id="FiibV92SIHVnTIMMilG7-20" value="" style="endArrow=classic;html=1;rounded=0;entryX=0;entryY=0.5;entryDx=0;entryDy=0;exitX=1;exitY=0.3333333333333333;exitDx=0;exitDy=0;exitPerimeter=0;" edge="1" parent="1" source="FiibV92SIHVnTIMMilG7-3" target="FiibV92SIHVnTIMMilG7-15">
          <mxGeometry width="50" height="50" relative="1" as="geometry">
            <mxPoint x="200" y="310" as="sourcePoint" />
            <mxPoint x="310" y="250" as="targetPoint" />
          </mxGeometry>
        </mxCell>
        <mxCell id="FiibV92SIHVnTIMMilG7-21" value="" style="endArrow=classic;html=1;rounded=0;entryX=0;entryY=0.5;entryDx=0;entryDy=0;exitX=1;exitY=0.3333333333333333;exitDx=0;exitDy=0;exitPerimeter=0;" edge="1" parent="1" source="FiibV92SIHVnTIMMilG7-3" target="FiibV92SIHVnTIMMilG7-17">
          <mxGeometry width="50" height="50" relative="1" as="geometry">
            <mxPoint x="220" y="330" as="sourcePoint" />
            <mxPoint x="320" y="260" as="targetPoint" />
          </mxGeometry>
        </mxCell>
        <mxCell id="FiibV92SIHVnTIMMilG7-22" value="" style="endArrow=classic;html=1;rounded=0;entryX=0;entryY=0.5;entryDx=0;entryDy=0;exitX=1;exitY=0.3333333333333333;exitDx=0;exitDy=0;exitPerimeter=0;" edge="1" parent="1" source="FiibV92SIHVnTIMMilG7-3" target="FiibV92SIHVnTIMMilG7-18">
          <mxGeometry width="50" height="50" relative="1" as="geometry">
            <mxPoint x="230" y="340" as="sourcePoint" />
            <mxPoint x="330" y="270" as="targetPoint" />
          </mxGeometry>
        </mxCell>
        <mxCell id="FiibV92SIHVnTIMMilG7-24" value="Writer" style="shape=umlActor;verticalLabelPosition=bottom;verticalAlign=top;html=1;outlineConnect=0;" vertex="1" parent="1">
          <mxGeometry x="710" y="285" width="20" height="30" as="geometry" />
        </mxCell>
        <mxCell id="FiibV92SIHVnTIMMilG7-28" value="" style="endArrow=classic;html=1;rounded=0;entryX=1;entryY=0.5;entryDx=0;entryDy=0;" edge="1" parent="1" source="FiibV92SIHVnTIMMilG7-24" target="FiibV92SIHVnTIMMilG7-27">
          <mxGeometry width="50" height="50" relative="1" as="geometry">
            <mxPoint x="440" y="370" as="sourcePoint" />
            <mxPoint x="490" y="320" as="targetPoint" />
          </mxGeometry>
        </mxCell>
        <mxCell id="FiibV92SIHVnTIMMilG7-29" value="" style="endArrow=classic;html=1;rounded=0;exitX=1;exitY=0.3333333333333333;exitDx=0;exitDy=0;exitPerimeter=0;entryX=0;entryY=0.5;entryDx=0;entryDy=0;" edge="1" parent="1" source="FiibV92SIHVnTIMMilG7-3" target="FiibV92SIHVnTIMMilG7-27">
          <mxGeometry width="50" height="50" relative="1" as="geometry">
            <mxPoint x="440" y="370" as="sourcePoint" />
            <mxPoint x="490" y="320" as="targetPoint" />
          </mxGeometry>
        </mxCell>
        <mxCell id="FiibV92SIHVnTIMMilG7-32" value="" style="endArrow=classic;html=1;rounded=0;exitX=0;exitY=0.3333333333333333;exitDx=0;exitDy=0;exitPerimeter=0;entryX=1;entryY=0.5;entryDx=0;entryDy=0;" edge="1" parent="1" source="FiibV92SIHVnTIMMilG7-24" target="FiibV92SIHVnTIMMilG7-11">
          <mxGeometry width="50" height="50" relative="1" as="geometry">
            <mxPoint x="710" y="300" as="sourcePoint" />
            <mxPoint x="500" y="310" as="targetPoint" />
          </mxGeometry>
        </mxCell>
        <mxCell id="FiibV92SIHVnTIMMilG7-33" value="" style="endArrow=classic;html=1;rounded=0;exitX=0;exitY=0.3333333333333333;exitDx=0;exitDy=0;exitPerimeter=0;entryX=1;entryY=0.5;entryDx=0;entryDy=0;" edge="1" parent="1" source="FiibV92SIHVnTIMMilG7-24" target="FiibV92SIHVnTIMMilG7-15">
          <mxGeometry width="50" height="50" relative="1" as="geometry">
            <mxPoint x="450" y="360" as="sourcePoint" />
            <mxPoint x="500" y="310" as="targetPoint" />
          </mxGeometry>
        </mxCell>
        <mxCell id="FiibV92SIHVnTIMMilG7-35" value="Guest" style="shape=umlActor;verticalLabelPosition=bottom;verticalAlign=top;html=1;outlineConnect=0;" vertex="1" parent="1">
          <mxGeometry x="180" y="400" width="20" height="30" as="geometry" />
        </mxCell>
        <mxCell id="FiibV92SIHVnTIMMilG7-36" value="" style="endArrow=classic;html=1;rounded=0;exitX=1;exitY=0.3333333333333333;exitDx=0;exitDy=0;exitPerimeter=0;entryX=0;entryY=0.5;entryDx=0;entryDy=0;" edge="1" parent="1" source="FiibV92SIHVnTIMMilG7-35" target="FiibV92SIHVnTIMMilG7-11">
          <mxGeometry width="50" height="50" relative="1" as="geometry">
            <mxPoint x="410" y="410" as="sourcePoint" />
            <mxPoint x="460" y="360" as="targetPoint" />
          </mxGeometry>
        </mxCell>
        <mxCell id="FiibV92SIHVnTIMMilG7-41" value="" style="endArrow=classic;html=1;rounded=0;exitX=0;exitY=0.3333333333333333;exitDx=0;exitDy=0;exitPerimeter=0;entryX=1;entryY=0.5;entryDx=0;entryDy=0;" edge="1" parent="1" source="FiibV92SIHVnTIMMilG7-24" target="FiibV92SIHVnTIMMilG7-39">
          <mxGeometry width="50" height="50" relative="1" as="geometry">
            <mxPoint x="420" y="360" as="sourcePoint" />
            <mxPoint x="470" y="310" as="targetPoint" />
          </mxGeometry>
        </mxCell>
        <mxCell id="FiibV92SIHVnTIMMilG7-42" value="" style="endArrow=classic;html=1;rounded=0;entryX=0;entryY=0.5;entryDx=0;entryDy=0;" edge="1" parent="1" target="FiibV92SIHVnTIMMilG7-39">
          <mxGeometry width="50" height="50" relative="1" as="geometry">
            <mxPoint x="200" y="410" as="sourcePoint" />
            <mxPoint x="470" y="310" as="targetPoint" />
          </mxGeometry>
        </mxCell>
        <mxCell id="FiibV92SIHVnTIMMilG7-43" value="" style="endArrow=classic;html=1;rounded=0;exitX=1;exitY=0.3333333333333333;exitDx=0;exitDy=0;exitPerimeter=0;entryX=0;entryY=0.5;entryDx=0;entryDy=0;" edge="1" parent="1" source="FiibV92SIHVnTIMMilG7-3" target="FiibV92SIHVnTIMMilG7-39">
          <mxGeometry width="50" height="50" relative="1" as="geometry">
            <mxPoint x="420" y="360" as="sourcePoint" />
            <mxPoint x="470" y="310" as="targetPoint" />
          </mxGeometry>
        </mxCell>
      </root>
    </mxGraphModel>
  </diagram>
</mxfile>
